<svg aria-hidden="true" style="position:absolute;width:0;height:0;overflow:hidden" xmlns="http://www.w3.org/2000/svg"><defs>
<symbol id="icon-active" viewBox="0 0 32 32"><path d="M10.667 0h10.667c5.891 0 10.667 4.776 10.667 10.667v10.667c0 5.891-4.776 10.667-10.667 10.667H10.667C4.776 32.001 0 27.225 0 21.334V10.667C0 4.776 4.776 0 10.667 0z"/><path fill="none" stroke="#fff" style="stroke:var(--color1, #fff)" stroke-width="3.574" d="m8.889 17.778 5.333 3.556L24 10.667"/></symbol>
<symbol id="icon-arrow-left" viewBox="0 0 32 32"><path stroke-linejoin="round" stroke-linecap="round" stroke-width="2.6" d="m25.427 16.001-18.856-.002M15.998 25.428l-9.427-9.429L16 6.572"/></symbol>
<symbol id="icon-arrow-up-right" viewBox="0 0 32 32"><path stroke-linejoin="round" stroke-linecap="round" stroke-width="2.667" d="M9.333 22.667 22.666 9.334M9.333 9.333h13.333v13.333"/></symbol>
<symbol id="icon-burger" viewBox="0 0 32 32"><path stroke-linejoin="round" stroke-linecap="round" stroke-width="2.286" d="M28 13.333H4M28 8H4M28 18.667H4M28 24H4"/></symbol>
<symbol id="icon-chevron-down" viewBox="0 0 32 32"><path  stroke-linejoin="round" stroke-linecap="round" stroke-width="3.2" d="m8 12 8 8 8-8"/></symbol>
<symbol id="icon-chevron-up" viewBox="0 0 32 32"><path fill="none" stroke="#fff" style="stroke:var(--color1, #fff)" stroke-linejoin="round" stroke-linecap="round" stroke-width="2.667" d="m8 20 8-8 8 8"/></symbol>
<symbol id="icon-cross" viewBox="0 0 32 32"><path stroke-linejoin="round" stroke-linecap="round" stroke-width="3" d="M24 8 8 24M8 8l16 16"/></symbol>
<symbol id="icon-eye" viewBox="0 0 32 32"><path stroke-linejoin="round" stroke-linecap="round" stroke-width="2.88" d="M1.333 16S6.666 5.333 16 5.333 30.667 16 30.667 16 25.334 26.667 16 26.667C6.667 26.667 1.333 16 1.333 16z"/><path stroke-linejoin="round" stroke-linecap="round" stroke-width="2.88" d="M16 20a4 4 0 1 0 0-8 4 4 0 0 0 0 8z"/></symbol>
<symbol id="icon-eye-off" viewBox="0 0 32 32"><path stroke-linejoin="round" stroke-linecap="round" stroke-width="2.88" d="M23.92 23.92A13.43 13.43 0 0 1 16 26.667C6.667 26.667 1.333 16 1.333 16A24.605 24.605 0 0 1 8.08 8.08m5.12-2.426a12.161 12.161 0 0 1 2.8-.32c9.333 0 14.667 10.667 14.667 10.667a24.646 24.646 0 0 1-2.88 4.253m-8.961-1.427a4.01 4.01 0 0 1-2.855 1.273 3.996 3.996 0 0 1-3.779-2.501 3.995 3.995 0 0 1 .983-4.424M1.333 1.334l29.333 29.333"/></symbol>
<symbol id="icon-facebook" viewBox="0 0 32 32"><path d="M19.52 4.64h.96v3.6h-1.2c-.48 0-.96 0-1.2.24s-.24.48-.24 1.04v1.28h2.64v3.04h-2.64v13.2h-4.08V13.76H11.6v-3.04h2.16V9.68c0-1.76.24-3.04.72-3.6.72-1.04 2.16-1.52 4.32-1.52.24.08.48.08.72.08z"/></symbol>
<symbol id="icon-heart" viewBox="0 0 32 32"><path stroke-linejoin="round" stroke-linecap="round" stroke-width="2.667" d="M27.786 6.146a7.345 7.345 0 0 0-5.187-2.15 7.33 7.33 0 0 0-5.187 2.15l-1.413 1.413-1.413-1.413a7.333 7.333 0 0 0-10.374 0 7.333 7.333 0 0 0 0 10.374l11.787 11.787L27.786 16.52a7.345 7.345 0 0 0 2.15-5.187 7.33 7.33 0 0 0-2.15-5.187z"/></symbol>
<symbol id="icon-instagram" viewBox="0 0 32 32"><path d="M28.718 10.756a9.264 9.264 0 0 0-.596-3.145 6.547 6.547 0 0 0-3.743-3.737 9.42 9.42 0 0 0-3.108-.596c-1.368-.061-1.801-.078-5.273-.078s-3.916 0-5.274.078a9.418 9.418 0 0 0-3.106.596 6.541 6.541 0 0 0-3.743 3.737 9.288 9.288 0 0 0-.596 3.101c-.061 1.367-.08 1.8-.08 5.265s0 3.909.08 5.265a9.335 9.335 0 0 0 .596 3.104 6.55 6.55 0 0 0 3.744 3.736c.989.386 2.04.604 3.106.639 1.369.061 1.803.08 5.274.08s3.916 0 5.274-.08a9.362 9.362 0 0 0 3.108-.595 6.555 6.555 0 0 0 3.743-3.737 9.35 9.35 0 0 0 .596-3.104c.061-1.365.08-1.798.08-5.265-.003-3.466-.003-3.906-.082-5.264zM15.99 22.531c-3.631 0-6.572-2.936-6.572-6.561s2.941-6.561 6.572-6.561c3.628 0 6.572 2.936 6.572 6.561s-2.944 6.561-6.572 6.561zm6.834-11.835a1.53 1.53 0 1 1 0-3.06 1.53 1.53 0 1 1 0 3.06z"/><path d="M15.992 19.976a4.004 4.004 0 1 0 0-8.009 4.004 4.004 0 0 0 0 8.009z"/></symbol>
<symbol id="icon-minus" viewBox="0 0 32 32"><path stroke-linejoin="round" stroke-linecap="round" stroke-width="2" d="M6.667 16h18.667"/></symbol><symbol id="icon-plus" viewBox="0 0 32 32"><path stroke-linejoin="round" stroke-linecap="round" stroke-width="2.618" d="M16 6.667v18.667M6.666 16h18.667"/></symbol>
<symbol id="icon-trash" viewBox="0 0 32 32"><path stroke-linejoin="round" stroke-linecap="round" stroke-width="2.667" d="M12 4h8M4 8h24m-2.667 0-.935 14.026c-.14 2.104-.21 3.156-.665 3.954a4.007 4.007 0 0 1-1.731 1.62c-.826.4-1.881.4-3.99.4h-4.025c-2.109 0-3.163 0-3.99-.4a4.001 4.001 0 0 1-1.731-1.62c-.455-.798-.525-1.85-.665-3.954L6.666 8"/></symbol>
<symbol id="icon-upload" viewBox="0 0 32 32">
<path fill="none" stroke="rgba(5, 5, 5, 0.3)" style="stroke: var(--color1, rgba(5, 5, 5, 0.3))" stroke-linejoin="round" stroke-linecap="round" stroke-miterlimit="4" stroke-width="0.4444" d="M27.058 10.159v-4.072c0-0.717-0.284-1.405-0.791-1.913s-1.193-0.794-1.91-0.796l-4.072-0.012M27.058 18.286v4.063c0 0.718-0.285 1.407-0.793 1.916s-1.197 0.793-1.916 0.793h-4.063M12.159 3.366l-4.072 0.014c-0.717 0.002-1.404 0.288-1.91 0.796s-0.791 1.196-0.791 1.913v4.070M12.159 25.058h-4.063c-0.718 0-1.407-0.285-1.916-0.793s-0.793-1.197-0.793-1.916v-4.063"></path>
<path d="M16.222 16.667c0.556 0 1.028-0.194 1.417-0.583s0.583-0.861 0.583-1.417-0.194-1.028-0.583-1.417c-0.389-0.389-0.861-0.583-1.417-0.583s-1.028 0.194-1.417 0.583c-0.389 0.389-0.583 0.861-0.583 1.417s0.194 1.028 0.583 1.417c0.389 0.389 0.861 0.583 1.417 0.583zM12.667 18.222c-0.244 0-0.454-0.087-0.628-0.261s-0.261-0.384-0.261-0.628v-5.333c0-0.244 0.087-0.454 0.261-0.628s0.383-0.261 0.628-0.261h1.4l0.822-0.889h2.667l0.822 0.889h1.4c0.244 0 0.454 0.087 0.628 0.261s0.261 0.383 0.261 0.628v5.333c0 0.244-0.087 0.454-0.261 0.628s-0.384 0.261-0.628 0.261h-7.111z"></path>
</symbol>

<symbol id="icon-youtube" viewBox="0 0 32 32"><path d="M30.112 9.356s-.288-2.08-1.152-2.971c-1.056-1.189-2.304-1.189-2.88-1.288C22.048 4.8 16 4.8 16 4.8s-6.048 0-10.08.297c-.576.099-1.824.099-2.88 1.288-.864.891-1.152 2.971-1.152 2.971S1.6 11.733 1.6 14.11v2.179c0 2.377.288 4.853.288 4.853s.288 2.08 1.152 2.971c1.056 1.189 2.496 1.189 3.168 1.288 2.304.099 9.792.198 9.792.198s6.048 0 10.08-.297c.576-.099 1.824-.099 2.88-1.288.864-.891 1.152-2.971 1.152-2.971s.288-2.377.288-4.754V14.11c0-2.377-.288-4.754-.288-4.754zm-17.088 9.707v-8.32l7.776 4.16-7.776 4.16z"/></symbol></defs></svg>